<svg xmlns="http://www.w3.org/2000/svg" version="1.0" width="512.000000pt" height="512.000000pt" viewBox="0 0 512.000000 512.000000" preserveAspectRatio="xMidYMid meet">

<g transform="translate(0.000000,512.000000) scale(0.100000,-0.100000)" fill="#76bbc4" stroke="none">
<path d="M3540 5104 c-208 -37 -356 -166 -414 -360 -14 -47 -19 -109 -23 -302 l-6 -244 -86 7 c-156 12 -394 -27 -548 -89 -298 -122 -493 -310 -943 -911 -795 -1062 -1392 -2115 -1500 -2646 -32 -154 -24 -262 26 -361 141 -279 546 -242 1257 114 559 280 1341 777 1987 1263 513 387 668 540 789 784 92 183 134 366 134 587 l0 142 246 5 c209 4 255 8 306 25 162 53 283 174 332 332 23 76 23 218 -1 290 -22 66 -59 133 -99 180 -40 47 -134 117 -174 131 -18 6 -33 12 -33 13 0 2 20 33 45 70 136 204 109 474 -65 640 -97 92 -211 138 -345 138 -115 0 -234 -40 -313 -106 -16 -15 -32 -26 -35 -26 -3 0 -10 15 -16 33 -23 67 -120 175 -202 225 -81 49 -236 81 -319 66z m140 -349 c34 -17 66 -54 79 -88 6 -16 11 -91 11 -168 0 -97 4 -150 14 -173 18 -44 71 -83 123 -92 76 -12 106 7 273 172 85 84 168 157 183 163 98 37 207 -22 223 -121 14 -83 4 -100 -166 -273 -88 -89 -164 -174 -170 -189 -28 -75 -1 -156 69 -203 32 -21 45 -23 183 -23 164 0 194 -7 241 -58 71 -75 50 -198 -41 -250 -36 -20 -57 -22 -309 -28 l-270 -7 -40 84 c-115 237 -342 462 -587 581 l-69 33 7 265 c8 283 12 305 62 352 50 46 121 55 184 23z m-571 -896 c78 -12 164 -41 253 -85 233 -114 404 -320 485 -581 25 -81 27 -102 27 -258 1 -147 -2 -180 -22 -248 -83 -290 -220 -440 -774 -855 -1102 -824 -2265 -1472 -2664 -1485 -79 -2 -87 6 -79 83 20 177 131 463 316 812 103 195 259 468 268 468 3 0 54 -48 111 -106 132 -132 171 -164 218 -175 98 -22 202 61 202 161 0 61 -30 103 -190 264 l-160 162 176 265 c96 145 182 271 190 279 12 12 41 -13 232 -202 234 -233 243 -239 329 -223 57 10 119 77 128 137 12 78 -11 110 -259 357 l-224 224 121 161 c66 89 157 206 201 261 44 55 81 102 83 104 2 3 122 -113 266 -256 144 -144 275 -267 290 -272 110 -42 227 36 227 151 0 27 -6 61 -14 76 -8 15 -132 144 -275 287 -144 143 -261 262 -261 266 0 3 30 28 68 56 211 157 456 215 731 172z" fill="#76bbc4"/>
</g>
</svg>