<svg xmlns="http://www.w3.org/2000/svg" version="1.0" width="512.000000pt" height="512.000000pt" viewBox="0 0 512.000000 512.000000" preserveAspectRatio="xMidYMid meet">

<g transform="translate(0.000000,512.000000) scale(0.100000,-0.100000)" fill="#76bbc4" stroke="none">
<path d="M2688 4610 c-20 -5 -419 -220 -885 -477 l-848 -468 -420 -5 c-397 -5 -422 -6 -454 -25 -19 -11 -43 -33 -55 -48 l-21 -28 0 -999 0 -999 21 -28 c12 -15 36 -37 55 -48 32 -19 57 -20 454 -25 l420 -5 847 -467 c539 -298 865 -472 895 -479 97 -21 196 13 268 93 81 90 75 -68 75 1958 0 1582 -2 1813 -15 1857 -19 62 -88 143 -148 172 -50 24 -137 34 -189 21z m52 -2050 c0 -957 -3 -1740 -6 -1740 -3 0 -368 199 -810 442 l-804 443 0 855 0 855 803 442 c441 243 805 442 810 443 4 0 7 -783 7 -1740z m-1920 0 l0 -800 -260 0 -260 0 0 800 0 800 260 0 260 0 0 -800z" fill="#76bbc4"/>
<path d="M3410 3430 c-19 -10 -43 -32 -53 -50 -21 -35 -24 -107 -7 -142 7 -12 159 -170 338 -350 l327 -328 -327 -327 c-179 -181 -331 -339 -338 -351 -17 -35 -14 -107 6 -141 36 -60 131 -89 192 -57 15 8 171 159 347 335 176 177 324 321 330 321 6 0 154 -144 330 -321 176 -176 332 -327 347 -335 83 -44 197 10 214 101 14 77 12 80 -344 438 l-337 337 337 338 c289 290 337 342 343 374 18 98 -47 178 -145 178 -23 0 -53 -6 -68 -14 -15 -8 -171 -159 -347 -335 -176 -177 -324 -321 -330 -321 -6 0 -154 144 -330 321 -176 176 -332 327 -347 335 -37 19 -96 17 -138 -6z" fill="#76bbc4"/>
</g>
</svg>