<svg xmlns="http://www.w3.org/2000/svg" version="1.0" width="512.000000pt" height="512.000000pt" viewBox="0 0 512.000000 512.000000" preserveAspectRatio="xMidYMid meet">

<g transform="translate(0.000000,512.000000) scale(0.100000,-0.100000)" fill="#ffffff" stroke="none">
<path d="M2688 4610 c-20 -5 -419 -220 -885 -477 l-848 -468 -420 -5 c-397 -5 -422 -6 -454 -25 -19 -11 -43 -33 -55 -48 l-21 -28 0 -999 0 -999 21 -28 c12 -15 36 -37 55 -48 32 -19 57 -20 454 -25 l420 -5 847 -467 c539 -298 865 -472 895 -479 97 -21 196 13 268 93 81 90 75 -68 75 1958 0 1582 -2 1813 -15 1857 -19 62 -88 143 -148 172 -50 24 -137 34 -189 21z m52 -2050 c0 -957 -3 -1740 -6 -1740 -3 0 -368 199 -810 442 l-804 443 0 855 0 855 803 442 c441 243 805 442 810 443 4 0 7 -783 7 -1740z m-1920 0 l0 -800 -260 0 -260 0 0 800 0 800 260 0 260 0 0 -800z" fill="#ffffff"/>
<path d="M4285 4171 c-48 -29 -67 -57 -72 -105 -8 -69 2 -90 83 -178 196 -213 334 -447 423 -713 226 -678 66 -1412 -423 -1943 -82 -88 -91 -109 -83 -179 9 -84 88 -136 181 -119 26 5 53 25 105 79 445 462 670 1108 611 1752 -33 356 -164 733 -357 1025 -105 159 -267 349 -327 383 -40 22 -103 22 -141 -2z" fill="#ffffff"/>
<path d="M3875 3756 c-41 -18 -83 -69 -91 -111 -10 -53 13 -101 86 -182 163 -178 279 -408 327 -651 24 -120 24 -384 0 -504 -49 -243 -164 -473 -327 -652 -80 -88 -100 -134 -81 -195 14 -48 68 -98 116 -107 66 -12 115 17 202 117 229 265 366 575 402 911 50 459 -91 905 -399 1264 -99 115 -159 143 -235 110z" fill="#ffffff"/>
<path d="M3432 3320 c-51 -32 -74 -76 -69 -137 3 -45 10 -60 46 -100 148 -168 205 -313 205 -523 0 -210 -57 -355 -205 -523 -36 -40 -43 -55 -46 -100 -5 -61 18 -105 69 -137 39 -24 107 -26 147 -5 64 33 200 221 257 355 61 145 78 237 78 410 0 175 -17 264 -76 406 -59 138 -194 326 -259 359 -40 21 -108 19 -147 -5z" fill="#ffffff"/>
</g>
</svg>