<svg xmlns="http://www.w3.org/2000/svg" version="1.0" width="64.000000pt" height="64.000000pt" viewBox="0 0 64.000000 64.000000" preserveAspectRatio="xMidYMid meet">

<g transform="translate(0.000000,64.000000) scale(0.100000,-0.100000)" fill="#76bbc4" stroke="none">
<path d="M300 530 c0 -43 3 -50 20 -50 17 0 20 7 20 50 0 43 -3 50 -20 50 -17 0 -20 -7 -20 -50z" fill="#76bbc4"/>
<path d="M134 499 c-3 -6 9 -26 27 -45 25 -26 35 -31 46 -22 11 9 8 17 -19 45 -34 35 -43 39 -54 22z" fill="#76bbc4"/>
<path d="M452 477 c-27 -28 -30 -36 -19 -45 11 -9 21 -4 46 22 18 19 30 39 27 45 -11 17 -20 13 -54 -22z" fill="#76bbc4"/>
<path d="M252 440 c-70 -43 -92 -128 -49 -191 57 -86 178 -88 233 -4 77 118 -64 268 -184 195z m117 -34 c67 -35 65 -143 -4 -174 -91 -41 -179 51 -131 137 26 47 84 63 135 37z" fill="#76bbc4"/>
<path d="M60 320 c0 -17 7 -20 50 -20 43 0 50 3 50 20 0 17 -7 20 -50 20 -43 0 -50 -3 -50 -20z" fill="#76bbc4"/>
<path d="M480 320 c0 -17 7 -20 50 -20 43 0 50 3 50 20 0 17 -7 20 -50 20 -43 0 -50 -3 -50 -20z" fill="#76bbc4"/>
<path d="M160 185 c-27 -28 -31 -38 -22 -47 10 -10 20 -5 48 23 29 29 33 38 21 47 -11 9 -21 4 -47 -23z" fill="#76bbc4"/>
<path d="M432 207 c-17 -20 52 -87 70 -69 10 10 5 20 -23 48 -29 29 -38 33 -47 21z" fill="#76bbc4"/>
<path d="M300 110 c0 -43 3 -50 20 -50 17 0 20 7 20 50 0 43 -3 50 -20 50 -17 0 -20 -7 -20 -50z" fill="#76bbc4"/>
</g>
</svg>